Genre:Action | Thriller
Language:English
IMDb:http://www.imdb.com/title/tt1560954/
Source:BluRay.x264-aAF


Format : Matroska
File size : 1.53 GiB
Duration : 1h 21mn
Overall bit rate : 2 679 Kbps



Video
Format settings, CABAC : Yes
Format settings, ReFrames : 4 frames
Format settings, GOP : M=1, N=16
Codec ID : V_MPEG4/ISO/AVC
Duration : 1h 21mn
Bit rate : 2 300 Kbps
Width : 1 280 pixels
Height : 720 pixels
Display aspect ratio : 16:9
Frame rate mode : Variable
Frame rate : 23.976 fps
Color space : YUV
Chroma subsampling : 4:2:0
Bit depth : 8 bits
Scan type : Progressive
Bits/(Pixel*Frame) : 0.104
Stream size : 1.28 GiB (84%)
Writing library : x264 


Audio
ID : 2
Format : AC-3
Format/Info : Audio Coding 3
Mode extension : CM (complete main)
Codec ID : A_AC3
Duration : 1h 21mn
Bit rate mode : Constant
Bit rate : 384 Kbps
Channel(s) : 6 channels
Channel positions : Front: L C R, Side: L R, LFE
Sampling rate : 48.0 KHz
Bit depth : 16 bits
Video delay : -1mn 5s
Stream size : 225 MiB (14%)
Language : English








================================== 
http://thepiratebay.org/user/hiest
==================================